<svg width="1278" height="1278" viewBox="0 0 1278 1278" fill="none" xmlns="http://www.w3.org/2000/svg">
<path fill-rule="evenodd" clip-rule="evenodd" d="M639 1278C991.91 1278 1278 991.91 1278 639C1278 286.09 991.91 0 639 0C286.09 0 0 286.09 0 639C0 991.91 286.09 1278 639 1278ZM639 1181C938.338 1181 1181 938.338 1181 639C1181 339.662 938.338 97 639 97C339.662 97 97 339.662 97 639C97 938.338 339.662 1181 639 1181Z" fill="#154F92"/>
<path fill-rule="evenodd" clip-rule="evenodd" d="M639 1127C908.515 1127 1127 908.515 1127 639C1127 369.485 908.515 151 639 151C369.485 151 151 369.485 151 639C151 669.574 153.812 699.491 159.19 728.507C171.007 710.827 186.501 695.806 204.611 685.022C235.173 666.824 273.127 660.609 312.773 673.114C351.987 685.483 390.366 715.312 424.92 764.559C435.566 779.733 445.565 786.528 453.598 789.557C459.548 791.801 465.756 792.483 472.315 791.797C476.06 756.352 485.49 716.53 499.265 678.613C438.007 655.3 380.04 625.668 344.929 605.261C338.149 605.962 331.1 604.872 324.492 601.737C321.949 600.53 319.599 599.081 317.456 597.43C314.146 600.163 309.424 600.905 305.288 598.943C299.594 596.241 297.167 589.433 299.869 583.739C300.683 582.024 301.868 580.606 303.283 579.535C301.92 579.296 300.565 578.872 299.253 578.249C291.423 574.534 288.087 565.174 291.802 557.343C293.771 553.194 297.323 550.307 301.395 549.062C299.566 545.008 299.464 540.207 301.52 535.875C305.234 528.044 314.595 524.708 322.425 528.424C323.976 529.159 325.35 530.116 326.527 531.239C326.571 531.221 326.616 531.203 326.66 531.185C326.842 530.421 327.106 529.664 327.457 528.925C330.159 523.23 336.967 520.804 342.662 523.506C345.189 524.705 347.073 526.713 348.15 529.074C351.32 529.674 354.467 530.686 357.519 532.134C364.312 535.357 369.728 540.312 373.487 546.22C445.045 559.587 501.693 573.769 545.219 586.624C547.67 583.071 550.167 579.626 552.707 576.3C489.947 566.037 446.493 539.588 446.493 482.961C446.493 472.983 447.842 463.248 450.408 453.854L471.218 299.132C471.569 296.523 474.659 295.324 476.678 297.015L547.936 356.677C572.934 346.996 601.196 341.543 631.122 341.543C661.048 341.543 689.31 346.996 714.309 356.677L785.581 297.002C787.597 295.314 790.682 296.506 791.039 299.11L812.83 457.772C814.402 464.471 815.359 471.333 815.653 478.324L815.75 479.033L815.679 478.987C815.727 480.307 815.75 481.632 815.75 482.961C815.75 536.572 776.803 563.134 719.397 574.52C722.671 578.725 725.873 583.129 729.001 587.707C772.994 574.569 830.804 559.964 904.377 546.22C908.137 540.312 913.552 535.357 920.346 532.134C923.397 530.686 926.544 529.674 929.714 529.074C930.791 526.713 932.675 524.706 935.202 523.506C940.897 520.804 947.704 523.23 950.406 528.925C950.757 529.664 951.021 530.421 951.203 531.185L951.336 531.239C952.514 530.116 953.889 529.159 955.438 528.424C963.27 524.708 972.63 528.044 976.345 535.875C978.4 540.207 978.298 545.008 976.47 549.062C980.54 550.307 984.093 553.194 986.062 557.343C989.777 565.174 986.441 574.534 978.611 578.249C977.299 578.872 975.944 579.296 974.58 579.535C975.995 580.606 977.181 582.024 977.994 583.739C980.696 589.433 978.271 596.241 972.576 598.943C968.44 600.905 963.719 600.163 960.408 597.43C958.266 599.081 955.915 600.53 953.372 601.737C946.765 604.872 939.715 605.962 932.936 605.261C897.087 626.096 837.414 656.548 774.739 680.072C792.562 729.596 802.964 782.225 802.964 824.013C802.964 857.706 796.202 879.343 784.24 893.132C793.652 897.497 799.887 907.202 799.186 918.035C798.27 932.175 785.885 942.884 771.522 941.954C768.093 941.732 764.859 940.866 761.938 939.484C756.866 945.476 749.119 949.07 740.684 948.524C732.919 948.021 726.187 944.115 721.844 938.353C717.492 941.01 712.308 942.4 706.833 942.045C693.094 941.156 682.583 929.607 682.838 915.981C681.22 915.93 679.592 915.877 677.953 915.824L674.524 915.71C662.386 915.308 649.736 914.889 636.738 914.889C624.995 914.889 613.536 915.231 602.481 915.594C601.362 929.537 589.074 940.037 574.848 939.116C571.417 938.894 568.185 938.028 565.263 936.646C560.19 942.637 552.444 946.232 544.009 945.686C536.244 945.183 529.511 941.277 525.169 935.515C520.817 938.172 515.633 939.562 510.158 939.207C496.018 938.292 485.297 926.086 486.213 911.946C486.595 906.052 488.938 900.753 492.563 896.643C481.889 886.347 474.69 870.916 471.859 847.955C459.67 848.485 446.817 846.85 433.835 841.954C413.283 834.203 394.846 819.196 379.078 796.723C349.382 754.4 320.198 734.176 295.929 726.52C272.091 719.002 250.639 722.791 233.263 733.138C196.787 754.857 178.042 805.165 198.696 847.79C236.259 925.306 268.994 957.352 305.646 993.232C308.956 996.471 312.297 999.742 315.677 1003.08L314.914 1003.85C401.1 1080.46 514.615 1127 639 1127Z" fill="#154F92"/>
<circle cx="40.2578" cy="40.2578" r="40.2578" transform="matrix(-1 1.74846e-07 1.74846e-07 1 579.642 420.109)" fill="#99DEAD"/>
<circle cx="33.1235" cy="33.1235" r="33.1235" transform="matrix(-1 1.74846e-07 1.74846e-07 1 572.507 427.243)" fill="#23262A"/>
<ellipse cx="7.15807" cy="7.15807" rx="7.15807" ry="7.15807" transform="matrix(-1 1.74846e-07 1.74846e-07 1 570.464 434.031)" fill="white"/>
<circle cx="40.2578" cy="40.2578" r="40.2578" transform="matrix(-1 1.74846e-07 1.74846e-07 1 760.342 420.109)" fill="#99DEAD"/>
<circle cx="33.1235" cy="33.1235" r="33.1235" transform="matrix(-1 1.74846e-07 1.74846e-07 1 753.206 427.243)" fill="#23262A"/>
<ellipse cx="7.15807" cy="7.15807" rx="7.15807" ry="7.15807" transform="matrix(-1 1.74846e-07 1.74846e-07 1 751.164 434.03)" fill="white"/>
<path d="M773.728 458.408C796.811 447.268 851.787 425.624 957.738 428.171" stroke="#AAB0BA" stroke-width="3.40009" stroke-linecap="round"/>
<path d="M488.311 458.408C465.228 447.268 410.252 425.624 304.301 428.171" stroke="#AAB0BA" stroke-width="3.40009" stroke-linecap="round"/>
<path d="M792.755 481.241C811.805 481.92 869.352 475.105 937.361 500.268" stroke="#AAB0BA" stroke-width="3.40009" stroke-linecap="round"/>
<path d="M469.285 481.241C450.235 481.92 392.688 475.105 324.679 500.268" stroke="#AAB0BA" stroke-width="3.40009" stroke-linecap="round"/>
<path d="M800.608 465.282C828.106 459.39 898.815 451.534 973.452 465.283" stroke="#AAB0BA" stroke-width="3.13664" stroke-linecap="round"/>
<path d="M461.432 465.282C433.934 459.39 363.225 451.534 288.588 465.283" stroke="#AAB0BA" stroke-width="3.13664" stroke-linecap="round"/>
<path d="M628.214 476.013V514.373" stroke="#838C9A" stroke-width="3.40328" stroke-linecap="round"/>
<path d="M602.641 514.373L653.787 514.373" stroke="#838C9A" stroke-width="3.40328" stroke-linecap="round"/>
<path d="M628.618 463.319C635.432 463.319 645.532 464.754 651.123 467.735C652.699 468.575 652.688 470.626 651.372 471.833L630.333 491.119C629.134 492.218 627.293 492.218 626.094 491.119L605.082 471.858C603.756 470.642 603.758 468.574 605.353 467.742C610.972 464.812 621.146 463.319 628.618 463.319Z" fill="#F68282"/>
<circle cx="7.13345" cy="7.13345" r="7.13345" transform="matrix(0.903456 -0.428682 -0.428682 -0.903456 964.296 598.133)" fill="#FFC2C2"/>
<circle cx="21.6365" cy="21.6365" r="21.6365" transform="matrix(0.903456 -0.428682 -0.428682 -0.903456 925.815 597.604)" fill="#FFC2C2"/>
<circle cx="9.2935" cy="9.2935" r="9.2935" transform="matrix(0.903456 -0.428682 -0.428682 -0.903456 967.965 576.674)" fill="#FFC2C2"/>
<circle cx="9.99155" cy="9.99155" r="9.99155" transform="matrix(0.903456 -0.428682 -0.428682 -0.903456 957.66 555.938)" fill="#FFC2C2"/>
<circle cx="7.13345" cy="7.13345" r="7.13345" transform="matrix(0.903456 -0.428682 -0.428682 -0.903456 936.709 543.32)" fill="#FFC2C2"/>
<circle cx="310.181" cy="588.631" r="7.13345" transform="rotate(-154.616 310.181 588.631)" fill="#FFC2C2"/>
<circle cx="341.775" cy="568.781" r="21.6365" transform="rotate(-154.616 341.775 568.781)" fill="#FFC2C2"/>
<circle cx="305.486" cy="564.294" r="9.2935" transform="rotate(-154.616 305.486 564.294)" fill="#FFC2C2"/>
<circle cx="315.459" cy="542.628" r="9.99155" transform="rotate(-154.616 315.459 542.628)" fill="#FFC2C2"/>
<circle cx="337.768" cy="533.817" r="7.13345" transform="rotate(-154.616 337.768 533.817)" fill="#FFC2C2"/>
</svg>
